# xmcd
#
# Track frame offsets:
#	150
#	18020
#	33535
#	48447
#	67975
#	80837
#	101032
#	101772
#	102295
#
# Disc length: 1373 seconds
#
# Revision: 1
# Processed by: cddbd v1.5.1PL0 Copyright (c) Steve Scherf et al.
# Submitted via: EasyCDDAExtractor 6.5.4.1
#
DISCID=6f055b09
DTITLE=She Daisy - Christmas CD
DYEAR=1900
DGENRE=
TTITLE0=Jingle Bells
TTITLE1=Deck The Halls
TTITLE2=That's What I Want For Christmas
TTITLE3=What Child Is This?
TTITLE4=Santa's Got A Brand New Bag
TTITLE5=Twist Of The Magi
TTITLE6=Holiday Liner #1
TTITLE7=Holiday Liner #2
TTITLE8=New Year Liner
EXTD=
EXTT0=
EXTT1=
EXTT2=
EXTT3=
EXTT4=
EXTT5=
EXTT6=
EXTT7=
EXTT8=
PLAYORDER=
